<?xml version="1.0" encoding="UTF-8"?>
<svg width="388px" height="524px" viewBox="0 0 388 524" version="1.1" xmlns="http://www.w3.org/2000/svg" xmlns:xlink="http://www.w3.org/1999/xlink">
    <!-- Generator: Sketch 50.2 (55047) - http://www.bohemiancoding.com/sketch -->
    <title>pen-shadow</title>
    <desc>Created with Sketch.</desc>
    <defs></defs>
    <g id="Page-1" stroke="none" stroke-width="1" fill="none" fill-rule="evenodd">
        <g id="pen-group" transform="translate(-1.000000, -488.000000)" fill="#000000">
            <g id="pen-shadow" transform="translate(0.000000, 456.000000)">
                <path d="M253.067716,319.762897 C244.42511,337.143668 236.387743,355.313367 228.955618,374.271994 C226.69939,382.253703 221.319977,388.293858 212.81738,392.392458 C200.063485,398.540358 187.517628,393.882308 179.670065,413.105199 C171.822502,432.32809 178.098442,457.782396 193.508864,465.392348 C203.782479,470.46565 247.754663,486.516835 325.425416,513.545904 C338.33201,511.262561 348.737631,501.389245 356.642277,483.925955 C368.499248,457.73102 347.506053,432.931779 354.022142,411.332785 C358.366201,396.933456 374.463767,364.411521 402.314838,313.766982 L325.425416,313.766982 C285.829556,300.383487 261.710322,302.382126 253.067716,319.762897 Z" id="Path-4" transform="translate(289.299434, 409.289739) scale(-1, -1) rotate(-58.000000) translate(-289.299434, -409.289739) "></path>
                <path d="M272.509027,54.6058231 C254.422314,77.2683778 245.378958,95.2611135 245.378958,108.58403 C245.378958,128.568405 246.138748,197.833546 229.982498,229.130421 C219.211665,249.995005 172.354622,273.7023 89.4113705,300.252308 C83.4595476,313.904651 78.6581153,322.910511 75.0070736,327.269886 C71.356032,331.629261 63.6307716,343.532906 51.8312924,362.980823 C46.5995216,371.902698 40.1581153,375.025094 32.5070736,372.348011 C24.856032,369.670927 22.1789486,362.92874 24.4758236,352.121448 L190.975824,15.5745731 L272.509027,54.6058231 Z" id="Path-5" transform="translate(148.094681, 194.424703) scale(1, -1) rotate(8.000000) translate(-148.094681, -194.424703) "></path>
            </g>
        </g>
    </g>
</svg>