<?xml version="1.0" encoding="UTF-8"?>
<svg width="347px" height="493px" viewBox="0 0 347 493" version="1.1" xmlns="http://www.w3.org/2000/svg" xmlns:xlink="http://www.w3.org/1999/xlink">
    <!-- Generator: Sketch 50.2 (55047) - http://www.bohemiancoding.com/sketch -->
    <title>pen</title>
    <desc>Created with Sketch.</desc>
    <defs></defs>
    <g id="Page-1" stroke="none" stroke-width="1" fill="none" fill-rule="evenodd">
        <g id="pen-group" transform="translate(0.000000, 2.000000)">
            <g id="pen" transform="translate(3.000000, 0.000000)">
                <path d="M248.828692,169.03125 C233.71541,193.489583 226.15877,212.380208 226.15877,225.703125 C226.15877,245.6875 225.736328,297.402344 211.097656,334.712891 C201.338542,359.586589 152.883001,386.241536 65.7310353,414.677734 C59.7792123,428.330078 54.9777801,437.335938 51.3267384,441.695313 C47.6756967,446.054688 39.9504363,457.958333 28.1509571,477.40625 C22.9191863,486.328125 16.4777801,489.450521 8.82673838,486.773438 C1.17569672,484.096354 -1.50138662,477.354167 0.795488384,466.546875 L167.295488,130 L248.828692,169.03125 Z" id="Path-5" stroke="#000000" stroke-width="5" fill="#DDDDDD"></path>
                <circle id="Oval-Copy" fill="#000000" cx="102" cy="313" r="14"></circle>
                <polygon id="Path-6" fill="#000000" points="140.828125 186.043945 241.692383 186.043945 245.591797 162.819336 161.051758 142.735352"></polygon>
                <path d="M202.841797,14.2519531 C194.956239,30.1102566 187.622906,46.6883816 180.841797,63.9863281 C178.783203,71.2688802 173.875,76.7799479 166.117187,80.5195312 C154.480469,86.1289062 144.365234,89.4921875 137.205078,107.03125 C130.044922,124.570312 134.439453,140.181641 148.5,147.125 C157.873698,151.753906 197.994141,166.399089 268.861328,191.060547 C280.63737,188.977214 290.13151,179.96875 297.34375,164.035156 C308.162109,140.134766 289.007812,117.507812 294.953125,97.8007812 C298.916667,84.6627604 313.604167,54.9895833 339.015625,8.78125 L268.861328,8.78125 C232.733865,-3.42991806 210.727354,-1.60635035 202.841797,14.2519531 Z" id="Path-4" stroke="#000000" stroke-width="5" fill="#4653EA"></path>
                <path d="M95.5,312.5 L8.5,484.5" id="Line" stroke="#000000" stroke-width="5" stroke-linecap="square"></path>
            </g>
        </g>
    </g>
</svg>