<?xml version="1.0" encoding="UTF-8"?>
<svg width="389px" height="1014px" viewBox="0 0 389 1014" version="1.1" xmlns="http://www.w3.org/2000/svg" xmlns:xlink="http://www.w3.org/1999/xlink">
    <!-- Generator: Sketch 49.3 (51167) - http://www.bohemiancoding.com/sketch -->
    <title>pen</title>
    <desc>Created with Sketch.</desc>
    <defs></defs>
    <g id="Page-1" stroke="none" stroke-width="1" fill="none" fill-rule="evenodd">
        <g id="pen" transform="translate(0.000000, 2.000000)">
            <path d="M253.067716,775.762897 C244.42511,793.143668 236.387743,811.313367 228.955618,830.271994 C226.69939,838.253703 221.319977,844.293858 212.81738,848.392458 C200.063485,854.540358 187.517628,849.882308 179.670065,869.105199 C171.822502,888.32809 178.098442,913.782396 193.508864,921.392348 C203.782479,926.46565 247.754663,942.516835 325.425416,969.545904 C338.33201,967.262561 348.737631,957.389245 356.642277,939.925955 C368.499248,913.73102 347.506053,888.931779 354.022142,867.332785 C358.366201,852.933456 374.463767,820.411521 402.314838,769.766982 L325.425416,769.766982 C285.829556,756.383487 261.710322,758.382126 253.067716,775.762897 Z" id="Path-4" fill="#000000" transform="translate(289.299434, 865.289739) scale(-1, -1) rotate(-58.000000) translate(-289.299434, -865.289739) "></path>
            <path d="M251.828692,169.03125 C236.71541,193.489583 229.15877,212.380208 229.15877,225.703125 C229.15877,245.6875 228.736328,297.402344 214.097656,334.712891 C204.338542,359.586589 155.883001,386.241536 68.7310353,414.677734 C62.7792123,428.330078 57.9777801,437.335938 54.3267384,441.695313 C50.6756967,446.054688 42.9504363,457.958333 31.1509571,477.40625 C25.9191863,486.328125 19.4777801,489.450521 11.8267384,486.773438 C4.17569672,484.096354 1.49861338,477.354167 3.79548838,466.546875 L170.295488,130 L251.828692,169.03125 Z" id="Path-5" stroke="#000000" stroke-width="5" fill="#DDDDDD"></path>
            <path d="M272.509027,510.605823 C254.422314,533.268378 245.378958,551.261114 245.378958,564.58403 C245.378958,584.568405 246.138748,653.833546 229.982498,685.130421 C219.211665,705.995005 172.354622,729.7023 89.4113705,756.252308 C83.4595476,769.904651 78.6581153,778.910511 75.0070736,783.269886 C71.356032,787.629261 63.6307716,799.532906 51.8312924,818.980823 C46.5995216,827.902698 40.1581153,831.025094 32.5070736,828.348011 C24.856032,825.670927 22.1789486,818.92874 24.4758236,808.121448 L190.975824,471.574573 L272.509027,510.605823 Z" id="Path-5" fill="#000000" transform="translate(148.094681, 650.424703) scale(1, -1) rotate(8.000000) translate(-148.094681, -650.424703) "></path>
            <path d="M98.5,312.5 L11.5,484.5" id="Line" stroke="#000000" stroke-width="5" stroke-linecap="square"></path>
            <circle id="Oval-Copy" fill="#000000" cx="105" cy="313" r="14"></circle>
            <polygon id="Path-6" fill="#000000" points="143.828125 186.043945 244.692383 186.043945 248.591797 162.819336 164.051758 142.735352"></polygon>
            <path d="M205.841797,14.2519531 C197.956239,30.1102566 190.622906,46.6883816 183.841797,63.9863281 C181.783203,71.2688802 176.875,76.7799479 169.117187,80.5195312 C157.480469,86.1289062 147.365234,89.4921875 140.205078,107.03125 C133.044922,124.570312 137.439453,140.181641 151.5,147.125 C160.873698,151.753906 200.994141,166.399089 271.861328,191.060547 C283.63737,188.977214 293.13151,179.96875 300.34375,164.035156 C311.162109,140.134766 292.007812,117.507812 297.953125,97.8007812 C301.916667,84.6627604 316.604167,54.9895833 342.015625,8.78125 L271.861328,8.78125 C235.733865,-3.42991806 213.727354,-1.60635035 205.841797,14.2519531 Z" id="Path-4" stroke="#000000" stroke-width="5" fill="#4653EA"></path>
        </g>
    </g>
</svg>