<?xml version="1.0" encoding="UTF-8"?>
<svg width="205px" height="200px" viewBox="0 0 205 200" version="1.1" xmlns="http://www.w3.org/2000/svg" xmlns:xlink="http://www.w3.org/1999/xlink">
    <!-- Generator: Sketch 48.2 (47327) - http://www.bohemiancoding.com/sketch -->
    <title>face</title>
    <desc>Created with Sketch.</desc>
    <defs></defs>
    <g id="Page-1" stroke="none" stroke-width="1" fill="none" fill-rule="evenodd">
        <g id="face" transform="translate(2.000000, 2.000000)">
            <circle id="Oval-4-Copy" stroke="#000000" stroke-width="3" fill="#FF9EA1" cx="18" cy="110" r="18"></circle>
            <path d="M61.2956003,172.116211 C80.8170912,172.116211 153.521233,178.224684 167.739936,167 C187.110191,151.708521 186.081733,110.094286 186.081733,83.5 C186.081733,37.3842234 148.69751,0 102.581733,0 C56.4659566,0 19.0817332,37.3842234 19.0817332,83.5 C19.0817332,129.615777 15.1798237,172.116211 61.2956003,172.116211 Z" id="Oval-3" stroke="#000000" stroke-width="3" fill="#15234A"></path>
            <circle id="Oval-4" stroke="#000000" stroke-width="3" fill="#FF9EA1" opacity="0.900000036" cx="183" cy="110" r="18"></circle>
            <path d="M61.6582829,194.116211 C81.1797738,194.116211 153.883916,200.224684 168.102619,189 C187.472874,173.708521 192.084412,131.450323 186.444416,105.5 C177.2328,63.1162109 149.060192,22 102.944416,22 C56.8286391,22 27.8695185,63.8730469 19.4444157,105.5 C11.019313,147.126953 15.5425063,194.116211 61.6582829,194.116211 Z" id="Oval-3-Copy" stroke="#000000" stroke-width="3" fill="#FF9EA1"></path>
            <path d="M45.1769085,79.7577895 C47.1056194,79.7577895 57.8473186,89.0864028 71.2276897,79.7577895 C84.6080608,70.4291763 82.3563324,64.1681302 82.2853069,64.020729 C81.2838421,61.9423599 75.7013225,59.678688 66.615385,61.9423599 C57.5294475,64.2060317 43.2481975,79.7577895 45.1769085,79.7577895 Z" id="Path-4" stroke="#000000" stroke-width="2" fill="#FDF9FA"></path>
            <path d="M125.176908,79.7577895 C127.105619,79.7577895 137.847319,89.0864028 151.22769,79.7577895 C164.608061,70.4291763 162.356332,64.1681302 162.285307,64.020729 C161.283842,61.9423599 155.701323,59.678688 146.615385,61.9423599 C137.529448,64.2060317 123.248198,79.7577895 125.176908,79.7577895 Z" id="Path-4-Copy" stroke="#000000" stroke-width="2" fill="#FDF9FA" transform="translate(143.734938, 72.451920) scale(-1, 1) translate(-143.734938, -72.451920) "></path>
            <path d="M61.0883054,64.298175 C62.9414641,63.1929056 64.7512471,62.3510573 66.3916787,61.9423599 C72.0238801,60.5391523 76.3098839,60.8755886 78.9930068,61.8291588 C77.2299691,66.9546138 73.3945887,74.3813343 67.7670163,75.2792969 C62.7403236,76.0813802 60.5140867,72.4296875 61.0883054,64.3242188 L61.0883054,64.298175 Z" id="Combined-Shape" stroke="#000000" stroke-width="2" fill="#196A63"></path>
            <path d="M128.088305,64.298175 C129.941464,63.1929056 131.751247,62.3510573 133.391679,61.9423599 C139.02388,60.5391523 143.309884,60.8755886 145.993007,61.8291588 C144.229969,66.9546138 140.394589,74.3813343 134.767016,75.2792969 C129.740324,76.0813802 127.514087,72.4296875 128.088305,64.3242188 L128.088305,64.298175 Z" id="Combined-Shape-Copy" stroke="#000000" stroke-width="2" fill="#196A63" transform="translate(136.996503, 68.193816) scale(-1, 1) translate(-136.996503, -68.193816) "></path>
            <path d="" id="Path-14" stroke="#979797"></path>
            <path d="M95,28 L127.715332,70.9101562 C132.06429,77.913737 129.903971,83.5929362 121.234375,87.9477539 C117.762384,89.6917667 109.202,94.5667667 95.5532227,102.572754 L95,28 Z" id="Path-15-Copy" stroke="#000000" stroke-width="2" fill="#FF5D3E"></path>
            <path d="M120.812291,62 L127.342982,70.5657989 C131.69194,77.5693796 129.531621,83.2485788 120.862024,87.6033965 C117.390034,89.3474093 108.82965,94.2224093 95.1808721,102.228397 L95,77.8473749 L120.812291,62 Z" id="Combined-Shape" stroke="#000000" stroke-width="2" fill="#FDF9FA"></path>
        </g>
    </g>
</svg>