<?xml version="1.0" encoding="UTF-8"?>
<svg width="251px" height="478px" viewBox="0 0 251 478" version="1.1" xmlns="http://www.w3.org/2000/svg" xmlns:xlink="http://www.w3.org/1999/xlink">
    <!-- Generator: Sketch 48.2 (47327) - http://www.bohemiancoding.com/sketch -->
    <title>left-arm</title>
    <desc>Created with Sketch.</desc>
    <defs></defs>
    <g id="Page-1" stroke="none" stroke-width="1" fill="none" fill-rule="evenodd">
        <g id="left-arm" transform="translate(1.000000, 1.000000)" fill="#FF9EA1">
            <path d="M108.054199,65.5478516 L110.320801,84.6782227 L126.539062,124.419434 L144.537598,151.696777 C175.771322,145.664551 191.63737,141.667969 192.135742,139.707031 C192.634115,137.746094 198.469076,121.323079 209.640625,90.4379883 L200.047363,84.6782227 L187.358887,55.5444336 L164.645508,51.6298828 L108.054199,65.5478516 Z" id="Path-20"></path>
            <path d="M150.986328,144.519531 C151.668945,136.882161 151.431013,129.105771 153.03418,121.607422 C158.375428,96.6252687 181.099268,103.354697 196.549805,90.0048828 C206.678325,81.25348 210.439277,66.3172639 221.107422,58.2324219 C224.207765,55.8828305 245.311336,52.9934586 247.223633,63.2480469 C250.425159,80.416056 237.615087,75.5939758 228.977539,88.7402344 C217.9566,105.513989 227.602092,128.809501 214.760742,143.302734 C183.050781,179.091797 176.669922,162.855469 157.572266,225.586426 C146.333425,262.503165 128.494233,314.745841 104.054687,382.314453 C93.9036458,412.016276 95.5279948,439.94987 108.927734,466.115234 L22.7460937,474.958984 C-2.99348958,438.341797 -6.21028646,400.897135 13.0957031,362.625 C32.4016927,324.352865 61.6653646,274.712891 100.886719,213.705078 C110.865885,196.557943 115.324544,185.020182 114.262695,179.091797 C112.669922,170.199219 102.452637,163.217285 107.706543,145.310547 C111.209147,133.372721 116.883138,124.939128 124.728516,120.009766" id="Path-19" stroke="#000000" stroke-width="3"></path>
            <path d="M140.038086,98.5185547 C133.154995,112.511103 123.299332,126.73775 105.880859,127.645508 C92.9706889,128.318317 79.8877818,120.535724 89.4121094,104.482422 C92.6898282,98.9578105 99.8688198,96.9006415 104.31543,92.2646484 C107.015325,89.4497632 108.504232,85.6839193 110.598633,82.3935547" id="Path-18" stroke="#000000" stroke-width="3"></path>
            <path d="M199.922852,85.5097656 C197.899088,48.3762364 195.452148,30.6838709 163.84668,4.77636719 C145.871978,-9.95778073 135.861118,20.0792575 147.436523,33.9736328 C168.055367,58.7231719 156.761909,40.021972 165.782227,56.0332031" id="Path-17" stroke="#000000" stroke-width="3"></path>
            <path d="M152.113281,96.5673828 C148.852539,58.7851563 130.057853,79.097608 104.620117,82.7382813 C94.2832254,84.2177071 79.2892183,72.0912274 88.1425781,60.0771484 C90.5081278,56.867079 96.9921555,51.2260305 100.075684,49.1523438 C104.620117,46.0961914 109.909961,42.8715507 116.426758,41.3818359 C140.235304,35.9392934 175.059573,44.3163447 169.654297,75.609375" id="Path-15" stroke="#000000" stroke-width="3"></path>
        </g>
    </g>
</svg>