<?xml version="1.0" encoding="UTF-8"?>
<svg width="375px" height="482px" viewBox="0 0 375 482" version="1.1" xmlns="http://www.w3.org/2000/svg" xmlns:xlink="http://www.w3.org/1999/xlink">
    <!-- Generator: Sketch 48.2 (47327) - http://www.bohemiancoding.com/sketch -->
    <title>net</title>
    <desc>Created with Sketch.</desc>
    <defs></defs>
    <g id="Page-1" stroke="none" stroke-width="1" fill="none" fill-rule="evenodd">
        <g id="net" transform="translate(2.000000, 2.000000)" stroke="#000000" stroke-width="3">
            <path d="M25,248 C41.7042605,296.493851 53.3116802,330.020288 59.8222591,348.579312 C81.9537091,411.667115 94.6275394,445.543672 97.84375,450.208984 C104.796875,460.294922 119.560547,471.021484 135.566406,464.126953 C146.236979,459.530599 148.616536,448.307292 142.705078,430.457031 L85.4331057,340.808594" id="Path-2"></path>
            <path d="M227,248 C243.704261,296.493851 255.31168,330.020288 261.822259,348.579312 C283.953709,411.667115 296.627539,445.543672 299.84375,450.208984 C306.796875,460.294922 321.560547,471.021484 337.566406,464.126953 C348.236979,459.530599 350.616536,448.307292 344.705078,430.457031 L287.433106,340.808594" id="Path-2-Copy" transform="translate(287.433106, 357.156623) scale(-1, 1) translate(-287.433106, -357.156623) "></path>
            <path d="M57,195 L57,338.407234 C66.8216146,377.043297 84.8125,382.921224 110.972656,356.041016 C137.132812,329.160807 138.162109,283.20638 114.060547,218.177734 L103.408203,195" id="Path-3"></path>
            <path d="M241,195 L241,338.407234 C250.821615,377.043297 268.8125,382.921224 294.972656,356.041016 C321.132812,329.160807 322.162109,283.20638 298.060547,218.177734 L287.408203,195" id="Path-3-Copy" transform="translate(278.198182, 283.791876) scale(-1, 1) translate(-278.198182, -283.791876) "></path>
            <path d="M138.091797,194.664062 L126.015625,255.607422 C137.925781,295.587891 157.361979,316.035156 184.324219,316.949219 C211.286458,317.863281 232.273763,296.532552 247.286133,252.957031 L227.224609,194.664062" id="Path-5"></path>
            <path d="M188.720703,370.46875 L228.371094,433.625977 C223.032552,463.139648 208.813477,477.896484 185.713867,477.896484 C162.614258,477.896484 148.958984,464.001628 144.748047,436.211914 L188.720703,370.46875 Z" id="Path-6"></path>
            <path d="M86.0410156,340.28125 L58.0175781,347.769531" id="Path-7"></path>
            <path d="M286.5625,342.253906 L314.253906,348.398438" id="Path-10"></path>
            <path d="M185.5,371 C83.0511789,371 0,287.948821 0,185.5 C0,83.0511789 83.0511789,0 185.5,0 C287.948821,0 371,83.0511789 371,185.5 C371,287.948821 287.948821,371 185.5,371 Z M185.5,359 C281.321404,359 359,281.321404 359,185.5 C359,89.6785959 281.321404,12 185.5,12 C89.6785959,12 12,89.6785959 12,185.5 C12,281.321404 89.6785959,359 185.5,359 Z" id="Hoop" fill="#009F80"></path>
        </g>
    </g>
</svg>