<?xml version="1.0" encoding="UTF-8"?>
<svg width="247px" height="533px" viewBox="0 0 247 533" version="1.1" xmlns="http://www.w3.org/2000/svg" xmlns:xlink="http://www.w3.org/1999/xlink">
    <!-- Generator: Sketch 48.2 (47327) - http://www.bohemiancoding.com/sketch -->
    <title>right-arm</title>
    <desc>Created with Sketch.</desc>
    <defs></defs>
    <g id="Page-1" stroke="none" stroke-width="1" fill="none" fill-rule="evenodd">
        <g id="right-arm" transform="translate(2.000000, 1.000000)">
            <path d="M57.4990234,89.2177734 L77.0668945,64.0454102 L94.5483398,35.9003906 L107.23877,11.8549805 L115.633301,3.55175781 L124.30127,3.55175781 L131.54248,6.28125 C140.141764,18.5426432 144.557292,24.7211914 144.789062,24.8168945 C145.020833,24.9125977 147.198242,26.190918 151.321289,28.6518555 L153.475586,33.8452148 L152.674805,38.4165039 L148.075195,43.0703125 L142.811035,49.7333984 L140.043457,57.8964844 L87.6103516,123.849609 C60.8020833,122.227214 47.3046875,121.15625 47.1181641,120.636719 C46.9316406,120.117188 50.3919271,109.644206 57.4990234,89.2177734 Z" id="Path-25" fill="#FF9EA1"></path>
            <path d="M66.2089844,100.696289 C81.6641042,84.0827793 83.3972032,83.609926 97.1503906,59.8583984 C113.728596,31.2281114 111.791504,26.206543 127.519043,5.12841797 C133.09143,-2.3397227 147.887455,-0.170964769 150.581543,8.94580078 C152.827769,16.5470081 149.586374,17.6967084 145.327148,25.1147461" id="Path-23" stroke="#000000" stroke-width="3" fill="#FF9EA1"></path>
            <path d="M83.4824219,117.748047 C88.2721354,113.53776 91.8426556,106.944539 96.0117187,103.15332 C115.455566,85.4716797 123.379883,48.3588867 139.79248,54.0307617 C141.134402,54.4945037 145.123535,54.8095703 147.789062,60.9228516 C150.45459,67.0361328 147.549751,71.3620842 146.332031,72.7539063 C104.72168,120.313477 109.473633,132.93457 99.1499023,156.07666 C87.9544856,181.172757 74.6894936,180.907406 89.2666016,210.647461 C120.685547,274.748047 233.919922,463.077148 243.253906,482.254883 C247.678127,491.344949 177.58454,510.271056 99.1499023,529.318359 L37.4453125,244.416016 C36.9283854,244.463542 33.8035969,200.653055 25.71875,190.078125 C5.29296875,163.361328 -2.15260591,155.556342 1.03417969,126.039062 C2.38070138,113.567041 16.9291493,100.36639 23.0429687,91.5566406 C25.3791617,88.1902875 32.8250355,78.0941339 34.3863259,74.3056641 C40.7174697,58.9431482 43.1796875,37.2617188 55.9257812,37.2617188 C72.8270951,37.2617188 72.4240217,56.2037708 67.8515625,65.4785156 C64.7216797,71.8271484 62.2167969,80.2548828 55.4023437,90.5175781" id="Path-21" stroke="#000000" stroke-width="3" fill="#FF9EA1"></path>
            <path d="M73.6875,110.804687 C83.0045573,99.3037109 91.9693546,84.5691101 100.510742,72.4833984 C112.54248,55.4589844 123.090332,33.5532227 135.637695,26.1767578 C144.841504,20.7659338 157.309261,29.917017 152.051758,38.6298828 C149.500488,42.8579102 145.781738,42.2128906 140.367188,53.8769531" id="Path-22" stroke="#000000" stroke-width="3"></path>
            <path d="M127.176758,4.96679688 C125.024414,2.97460938 118.145171,2.70510831 114.660156,5.12792969 C102.862793,13.3295898 87.0448326,53.6447987 73.1982422,69.7460938 C56.3571292,89.3295234 53.0703125,95.9204102 34.3486328,111.779785" id="Path-24" stroke="#000000" stroke-width="3"></path>
        </g>
    </g>
</svg>