<?xml version="1.0" encoding="UTF-8"?>
<svg width="46px" height="88px" viewBox="0 0 46 88" version="1.1" xmlns="http://www.w3.org/2000/svg" xmlns:xlink="http://www.w3.org/1999/xlink">
    <!-- Generator: Sketch 48.2 (47327) - http://www.bohemiancoding.com/sketch -->
    <title>beak-top</title>
    <desc>Created with Sketch.</desc>
    <defs></defs>
    <g id="Page-1" stroke="none" stroke-width="1" fill="none" fill-rule="evenodd">
        <g id="Birb" transform="translate(-336.000000, -87.000000)">
            <g id="beak-top" transform="translate(326.000000, 0.000000)">
                <path d="M10.2821868,126.770066 C11.249236,136.077183 14.0476377,142.265862 18.677392,145.336106 C26.6145007,150.599637 22.9028247,164.965646 20.2028274,171.701645 C47.1944152,153.578852 73.231926,124.720265 51.0483738,90.1912552 C46.1824085,91.3648075 39.0531218,95.8205077 29.6605138,103.558356 C20.2679057,111.296204 13.8084634,119.033441 10.2821868,126.770066 Z" id="beak-top-copy" fill="#EDD174" transform="translate(34.843597, 130.946450) rotate(-16.000000) translate(-34.843597, -130.946450) "></path>
                <path d="M15.2821868,41.7700662 C16.249236,51.0771825 19.0476377,57.2658624 23.677392,60.336106 C31.6145007,65.5996372 27.9028247,79.9656464 25.2028274,86.7016452 C52.1944152,68.578852 78.231926,39.7202654 56.0483738,5.19125515 C51.1824085,6.36480745 44.0531218,10.8205077 34.6605138,18.5583558 C25.2679057,26.2962039 18.8084634,34.0334407 15.2821868,41.7700662 Z" id="beak-top-copy-2" transform="translate(39.843597, 45.946450) rotate(-16.000000) translate(-39.843597, -45.946450) "></path>
            </g>
        </g>
    </g>
</svg>