<?xml version="1.0" encoding="UTF-8"?>
<svg width="502px" height="502px" viewBox="0 0 502 502" version="1.1" xmlns="http://www.w3.org/2000/svg" xmlns:xlink="http://www.w3.org/1999/xlink">
    <!-- Generator: Sketch 48.2 (47327) - http://www.bohemiancoding.com/sketch -->
    <title>Combined Shape</title>
    <desc>Created with Sketch.</desc>
    <defs></defs>
    <g id="Page-1" stroke="none" stroke-width="1" fill="none" fill-rule="evenodd">
        <path d="M223.672941,144.05852 C223.399216,144.443005 223.124225,144.830611 222.847959,145.221365 C200.831858,176.361244 185.350448,201.433358 176.403728,220.437705 C150.556957,257.163926 129.767217,297.252389 114.034509,340.703094 C90.4354453,405.879152 84.255182,437.67135 82.2944953,449.459699 C80.9873709,457.318599 79.6957779,467.085378 78.4197163,478.760037 C100.240756,472.426388 128.182268,454.307596 162.244253,424.403662 C187.739994,416.271085 209.204998,407.82994 226.639276,399.08022 C263.855764,380.402426 285.347827,360.351769 309.025181,315.946397 C318.594587,297.999586 325.239121,274.084488 328.958785,244.201102 C344.168482,250.724797 358.150718,253.337457 368.12918,251.653838 C387.829688,248.329863 431.653631,216.698041 443.882446,196.957307 C468.804783,156.725673 436.170913,82.3608145 400.222136,60.3098962 C371.552256,42.7238412 354.794363,35.7362011 320.926136,32.7051399 C277.709948,28.8374763 235.456594,27.7894738 194.582564,42.7880025 L179.437751,42.9332159 C185.694619,89.9549495 177.532604,50.984807 214.199004,126.236791 C217.387721,132.78113 220.532728,138.671017 223.672944,144.058525 Z M1,1 L501,1 L501,501 L1,501 L1,1 Z" id="Combined-Shape" stroke="#979797" fill="#D8D8D8"></path>
    </g>
</svg>