<?xml version="1.0" encoding="UTF-8"?>
<svg width="367px" height="486px" viewBox="0 0 367 486" version="1.1" xmlns="http://www.w3.org/2000/svg" xmlns:xlink="http://www.w3.org/1999/xlink">
    <!-- Generator: Sketch 48.2 (47327) - http://www.bohemiancoding.com/sketch -->
    <title>body</title>
    <desc>Created with Sketch.</desc>
    <defs></defs>
    <g id="Page-1" stroke="none" stroke-width="1" fill="none" fill-rule="evenodd">
        <g id="body">
            <path d="M175.5,374.142857 L175.5,429.857143" id="Line-Copy" stroke="#BD846C" stroke-width="11" stroke-linecap="square"></path>
            <path d="M226.5,425.84375 L226.5,361.012659" id="Line-2-Copy" stroke="#BD846C" stroke-width="11" stroke-linecap="square"></path>
            <path d="M147,439.776218 C150.632883,439.776218 162.907098,414.512743 210.408219,437.991755" id="Path-2-Copy-2" stroke="#BD846C" stroke-width="11"></path>
            <path d="M197,433.776218 C200.632883,433.776218 212.907098,408.512743 260.408219,431.991755" id="Path-2-Copy-3" stroke="#BD846C" stroke-width="11"></path>
            <path d="M314.405811,114.356116 C314.568788,191.176447 304.884134,247.902389 285.351851,284.533944 C256.053425,339.481276 229.459086,364.292016 183.4073,387.403971 C152.706109,402.811941 111.903676,417.446602 61,431.307955 L212.112024,163.788011 C232.718209,136.453208 251.511691,120.778321 268.492472,116.763352 C285.473252,112.748382 300.777698,111.945971 314.405811,114.356116 Z" id="stomach-copy" fill="#98CB4B"></path>
            <path d="M315.160846,103.600873 C333.146404,109.350962 342.139183,113.053944 342.139183,114.709821 C342.139183,117.193636 382.462548,58.9094989 358.341637,25.0309072 C334.220725,-8.84768452 272.255651,-0.840436703 255.075353,6.26161389 C237.895056,13.3636645 219.580091,15.4794491 178.715913,73.27831 C151.473128,111.810884 132.316388,142.835187 121.245691,166.351221 C89.2628245,211.796349 63.5375422,261.401926 44.0698441,315.167951 C14.8682969,395.816988 7.22082169,435.156744 4.7946625,449.74368 C3.17722304,459.468304 1.57900221,471.553744 0,486 C31.9305919,476.73201 74.4521836,447.070754 127.564775,397.01623 C207.233662,321.934444 268.890854,216.299472 242.083179,192.98113" id="back-copy" fill="#517F27"></path>
        </g>
    </g>
</svg>