<?xml version="1.0" encoding="UTF-8"?>
<svg width="516px" height="502px" viewBox="0 0 516 502" version="1.1" xmlns="http://www.w3.org/2000/svg" xmlns:xlink="http://www.w3.org/1999/xlink">
    <!-- Generator: Sketch 48.2 (47327) - http://www.bohemiancoding.com/sketch -->
    <title>Combined Shape</title>
    <desc>Created with Sketch.</desc>
    <defs></defs>
    <g id="Page-1" stroke="none" stroke-width="1" fill="none" fill-rule="evenodd">
        <path d="M238.672808,164.387045 C224.646137,184.482175 214.675885,200.81073 208.762054,213.372708 C190.569297,239.223179 175.936031,267.440231 164.862255,298.023863 C148.251591,343.89931 143.901491,366.276874 142.521423,374.574334 C141.601378,380.105975 140.692265,386.980514 139.794084,395.197952 C155.153251,390.739889 174.820433,377.986622 198.79563,356.938151 C216.741308,351.213877 231.849872,345.272411 244.121331,339.113749 C270.316886,325.967017 285.444497,311.853968 302.110268,280.598375 C308.598005,268.431037 313.175752,252.366307 315.84351,232.404184 C324.206159,235.277603 331.757529,236.306047 337.454667,235.344796 C351.321257,233.005151 382.167599,210.740472 390.775091,196.845569 C408.317166,168.527743 385.347177,116.184578 360.043924,100.663606 C339.864067,88.2853161 328.068695,83.3669285 304.229878,81.2334565 C273.811315,78.5111255 244.070463,77.7734685 215.300475,88.3304773 L204.640501,88.4326886 C209.04452,121.529859 203.299526,94.099959 229.107891,147.067545 C232.332625,153.685803 235.493849,159.353147 238.672808,164.387045 Z M1,1 L514.651877,1 L514.651877,501 L1,501 L1,1 Z" id="Combined-Shape" stroke="#979797" fill="#D8D8D8"></path>
    </g>
</svg>