<?xml version="1.0" encoding="UTF-8"?>
<svg width="201px" height="199px" viewBox="0 0 201 199" version="1.1" xmlns="http://www.w3.org/2000/svg" xmlns:xlink="http://www.w3.org/1999/xlink">
    <!-- Generator: Sketch 48.2 (47327) - http://www.bohemiancoding.com/sketch -->
    <title>head-group</title>
    <desc>Created with Sketch.</desc>
    <defs></defs>
    <g id="Page-1" stroke="none" stroke-width="1" fill="none" fill-rule="evenodd">
        <g id="Birb" transform="translate(-570.000000, -144.000000)">
            <g id="head-group" transform="translate(570.000000, 144.000000)">
                <path d="M126.929572,90.8758829 C130.185423,118.599832 141.118924,131.900757 159.730075,130.778658 C178.341225,129.656558 191.131888,123.017008 198.102062,110.860007 C190.807056,113.297015 179.981492,113.807673 165.625373,112.391983 C151.269253,110.976293 138.370652,103.80426 126.929572,90.8758829 Z" id="beak-bottom" fill="#A68854" transform="translate(162.515817, 110.860007) rotate(-10.000000) translate(-162.515817, -110.860007) "></path>
                <path d="M144.985455,187.375533 C106.759097,201.415986 72.0149118,202.057735 40.7528998,189.300781 C38.2382775,188.27465 35.8400271,187.17861 33.5581486,186.012661 L46.1120236,163.788011 C66.7182087,136.453208 85.5116914,120.778321 102.492472,116.763352 C119.473252,112.748382 134.777698,111.945971 148.405811,114.356116 C148.46263,141.13831 147.322511,165.478116 144.985455,187.375533 Z" id="Combined-Shape" fill="#98CB4B"></path>
                <path d="M80.0381242,198.183657 C66.3831887,197.376931 53.2881139,194.415972 40.7528998,189.300781 C-4.57794863,170.802818 -12.0915038,129.58662 18.2122344,65.6521881 C55.2620769,15.2743217 72.6850722,13.0370848 89.0753533,6.26161389 C106.255651,-0.840436703 168.220725,-8.84768452 192.341637,25.0309072 C216.462548,58.9094989 176.139183,117.193636 176.139183,114.709821 C176.139183,113.053944 167.146404,109.350962 149.160846,103.600873 C82.5706176,147.64215 58.2113951,177.435569 76.0831786,192.98113 C77.7298263,194.413447 79.0426989,196.156342 80.0381242,198.183657 Z" id="Combined-Shape" fill="#517F27"></path>
                <path d="M174.210514,9.74962393 C181.832306,13.0499524 188.575872,17.8909838 193.475586,24.7727881 C208.828523,46.3364788 193.352891,79.5751866 184.716246,93.8661222 C184.42482,98.3835727 183.515733,102.875011 181.082231,107.423828 C174.547753,119.638384 167.322465,126.072266 158.746293,137.333984 C154.047481,143.504185 148.967485,150.26709 146.431352,170.461914 C144.940652,182.332121 129.456016,169.135601 123.484575,163.816406 C95.4843744,138.874605 82.5921156,119.514953 88.7841797,82.1494141 C97.4751075,29.7046733 132.216797,20.1181641 154.134766,11.0410156 C163.711809,7.07476121 170.403725,6.64429731 174.210514,9.74962393 Z" id="Combined-Shape-Copy-2" fill="#D94F00"></path>
            </g>
        </g>
    </g>
</svg>