<?xml version="1.0" encoding="UTF-8"?>
<svg width="228px" height="187px" viewBox="0 0 228 187" version="1.1" xmlns="http://www.w3.org/2000/svg" xmlns:xlink="http://www.w3.org/1999/xlink">
    <!-- Generator: Sketch 48.2 (47327) - http://www.bohemiancoding.com/sketch -->
    <title>head-alone</title>
    <desc>Created with Sketch.</desc>
    <defs></defs>
    <g id="Page-1" stroke="none" stroke-width="1" fill="none" fill-rule="evenodd">
        <g id="head-alone">
            <path d="M142,91.0317512 C145.255851,118.755701 156.189352,132.056626 174.800503,130.934526 C193.411653,129.812427 206.202316,123.172876 213.172491,111.015876 L192.98889,76 L142,91.0317512 Z" id="Path-6-Copy-2" fill="#DBAB57"></path>
            <path d="M160.732616,179.850592 C148.605278,171.851831 136.562876,162.070517 125.43457,150.621706 C116.278745,141.202184 107.902342,132.890167 100.024726,124.589105 C106.04613,120.701629 111.868712,118.093045 117.492472,116.763352 C134.473252,112.748382 149.777698,111.945971 163.405811,114.356116 C163.456203,138.108684 162.565138,159.940179 160.732615,179.850604 Z" id="Combined-Shape" fill="#98CB4B"></path>
            <path d="M96.1284921,186.810279 C65.3042455,160.134023 23.3735749,161.565918 0.56640625,114.757812 C0.433355445,114.484747 0.301189691,114.212338 0.169904744,113.940583 C8.18504897,101.469975 17.3670519,87.9158837 27.7159135,73.27831 C68.5800909,15.4794491 86.8950559,13.3636645 104.075353,6.26161389 C121.255651,-0.840436703 183.220725,-8.84768452 207.341637,25.0309072 C231.462548,58.9094989 191.139183,117.193636 191.139183,114.709821 C191.139183,113.053944 182.146404,109.350962 164.160846,103.600873 L96.1284921,186.810279 Z" id="Combined-Shape" fill="#517F27"></path>
            <path d="M199.716245,93.8661297 C199.42482,98.3835727 198.515733,102.875011 196.082231,107.423828 C189.547753,119.638384 182.322465,126.072266 173.746293,137.333984 C169.047481,143.504185 163.967485,150.26709 161.431352,170.461914 C159.940652,182.332121 144.456016,169.135601 138.484575,163.816406 C120.428891,147.732905 114.952474,135.777199 115.00031,119.294467 C114.973453,110.117414 116.694319,99.5471078 118.927934,86.0685291 C119.939137,79.9665017 121.058036,74.482764 122.316221,69.5269347 C124.35851,61.1956226 126.698376,54.6767921 129.579596,49.3741853 C140.105029,28.7873155 157.224568,21.4900674 187.3982,9 C195.761234,12.3018273 203.1909,17.3502778 208.475586,24.7727881 C223.828523,46.3364788 208.352891,79.5751866 199.716246,93.8661222 Z" id="Combined-Shape-Copy" fill="#D94F00"></path>
            <path d="M181,89.578811 C182.793423,98.1553259 185.591825,104.344006 189.395205,108.144851 C196.71734,115.462104 193.620638,127.774391 190.920641,134.51039 C217.912228,116.387597 243.949739,87.5290103 221.766187,53 C216.900222,54.1735523 209.770935,58.6292525 200.378327,66.3671006 C190.985719,74.1049487 184.526277,81.8421855 181,89.578811 Z" id="beak-top-copy-3" fill="#EDD174" opacity="0.98999995" transform="translate(205.561411, 93.755195) rotate(-10.000000) translate(-205.561411, -93.755195) "></path>
        </g>
    </g>
</svg>