<?xml version="1.0" encoding="UTF-8"?>
<svg width="249px" height="313px" viewBox="0 0 249 313" version="1.1" xmlns="http://www.w3.org/2000/svg" xmlns:xlink="http://www.w3.org/1999/xlink">
    <!-- Generator: Sketch 48.2 (47327) - http://www.bohemiancoding.com/sketch -->
    <title>wing</title>
    <desc>Created with Sketch.</desc>
    <defs></defs>
    <g id="Page-1" stroke="none" stroke-width="1" fill="none" fill-rule="evenodd">
        <g id="Birb" transform="translate(0.000000, -188.000000)" fill="#517F27">
            <path d="M239.783792,205.622324 C240.451208,206.442009 241.21767,207.228277 242.083179,207.98113 C242.097408,207.993507 242.111613,208.005908 242.125793,208.018332 C244.385373,210.586152 246.113155,213.407337 247.309127,216.481871 C257.323121,250.59195 199.859862,343.883683 127.564775,412.01623 C74.4521836,462.070754 31.9305919,491.73201 0,501 C1.57900221,486.553744 3.17722304,474.468304 4.7946625,464.74368 C7.22082169,450.156744 14.8682969,410.816988 44.0698441,330.167951 C61.3362145,282.481568 83.5250156,238.067937 110.636247,196.927057 C122.302753,193.507161 134.729944,190.851939 147.91782,188.961389 C194.784973,186.775976 225.406963,192.329621 239.783792,205.622324 Z" id="wing"></path>
        </g>
    </g>
</svg>