<?xml version="1.0" encoding="UTF-8"?>
<svg width="554px" height="805px" viewBox="0 0 554 805" version="1.1" xmlns="http://www.w3.org/2000/svg" xmlns:xlink="http://www.w3.org/1999/xlink">
    <!-- Generator: Sketch 48.2 (47327) - http://www.bohemiancoding.com/sketch -->
    <title>background</title>
    <desc>Created with Sketch.</desc>
    <defs>
        <path d="M0,179 L601,179 L601,931 L0,931 L0,179 Z M174,329 L174,563 L382,563 L382,329 L174,329 Z" id="path-1"></path>
        <rect id="path-2" x="173" y="668" width="208" height="222"></rect>
        <rect id="path-3" x="494" y="668" width="61" height="222"></rect>
        <rect id="path-4" x="494" y="328" width="61" height="233"></rect>
        <rect id="path-5" x="173" y="0" width="208" height="222"></rect>
        <rect id="path-6" x="494" y="0" width="208" height="222"></rect>
        <path d="M278.476562,669 L278.476562,837.253039 C276.166667,850.806191 272.636719,861.811808 267.886719,870.269889 C263.136719,878.727971 258.841146,885.3203 255,890.046875 L295.700684,890.046875 C292.871234,885.625369 289.833799,878.517784 286.588379,868.724121 C283.96582,860.810059 283.06766,855.343786 282.742989,837.350433 C281.424013,764.252434 281.009277,669 281.009277,669 C281.009277,669 280.165039,669 278.476562,669 Z" id="path-7"></path>
        <path d="M278.476562,1 L278.476562,169.253039 C276.166667,182.806191 272.636719,193.811808 267.886719,202.269889 C263.136719,210.727971 258.841146,217.3203 255,222.046875 L295.700684,222.046875 C292.871234,217.625369 289.833799,210.517784 286.588379,200.724121 C283.96582,192.810059 283.06766,187.343786 282.742989,169.350433 C281.424013,96.2524345 281.009277,1 281.009277,1 C281.009277,1 280.165039,1 278.476562,1 Z" id="path-8"></path>
    </defs>
    <g id="Artboard" stroke="none" stroke-width="1" fill="none" fill-rule="evenodd" transform="translate(-190.000000, 0.000000)">
        <g id="background" transform="translate(190.000000, -126.000000)">
            <g id="Combined-Shape">
                <use fill="#F3B7C8" fill-rule="evenodd" xlink:href="#path-1"></use>
                <path stroke="#000000" stroke-width="3" d="M1.5,180.5 L1.5,929.5 L599.5,929.5 L599.5,180.5 L1.5,180.5 Z M172.5,327.5 L383.5,327.5 L383.5,564.5 L172.5,564.5 L172.5,327.5 Z"></path>
            </g>
            <g id="Rectangle-Copy-2">
                <use fill="#0F87C6" fill-rule="evenodd" xlink:href="#path-2"></use>
                <rect stroke="#000000" stroke-width="3" x="174.5" y="669.5" width="205" height="219"></rect>
            </g>
            <g id="Rectangle-Copy-5">
                <use fill="#0F87C6" fill-rule="evenodd" xlink:href="#path-3"></use>
                <rect stroke="#000000" stroke-width="3" x="495.5" y="669.5" width="58" height="219"></rect>
            </g>
            <g id="Rectangle-Copy-6">
                <use fill="#0F87C6" fill-rule="evenodd" xlink:href="#path-4"></use>
                <rect stroke="#000000" stroke-width="3" x="495.5" y="329.5" width="58" height="230"></rect>
            </g>
            <g id="Rectangle-Copy-3">
                <use fill="#0F87C6" fill-rule="evenodd" xlink:href="#path-5"></use>
                <rect stroke="#000000" stroke-width="3" x="174.5" y="1.5" width="205" height="219"></rect>
            </g>
            <g id="Rectangle-Copy-4">
                <use fill="#0F87C6" fill-rule="evenodd" xlink:href="#path-6"></use>
                <rect stroke="#000000" stroke-width="3" x="495.5" y="1.5" width="205" height="219"></rect>
            </g>
            <g id="Path-5">
                <use fill="#000000" fill-rule="evenodd" xlink:href="#path-7"></use>
                <path stroke="#000000" stroke-width="1" d="M278.976541,669.5 L278.969455,837.337044 C276.650606,850.942726 273.103567,862.001631 268.322675,870.51472 C263.826427,878.520959 259.733468,884.864238 256.040612,889.546875 L294.801188,889.546875 C292.083003,885.050085 289.190011,878.164566 286.11376,868.8814 C283.313805,860.432013 282.552738,854.521317 282.243071,837.359453 C282.005907,824.215785 281.788381,809.829859 281.589669,794.398841 C281.236433,766.968195 280.958168,737.578444 280.746703,708.188723 C280.67269,697.902346 280.612315,688.350703 280.564554,679.778695 C280.547838,676.778474 280.533892,674.115002 280.52259,671.818892 C280.518634,671.015242 280.515291,670.314912 280.512546,669.721729 C280.512155,669.636297 280.51182,669.56309 280.511532,669.5 C280.257404,669.5 279.846799,669.5 278.976562,669.5 Z"></path>
            </g>
            <g id="Path-5-Copy">
                <use fill="#000000" fill-rule="evenodd" xlink:href="#path-8"></use>
                <path stroke="#000000" stroke-width="1" d="M278.976541,1.5 L278.969455,169.337044 C276.650606,182.942726 273.103567,194.001631 268.322675,202.51472 C263.826427,210.520959 259.733468,216.864238 256.040612,221.546875 L294.801188,221.546875 C292.083003,217.050085 289.190011,210.164566 286.11376,200.8814 C283.313805,192.432013 282.552738,186.521317 282.243071,169.359453 C282.005907,156.215785 281.788381,141.829859 281.589669,126.398841 C281.236433,98.9681953 280.958168,69.5784435 280.746703,40.1887233 C280.67269,29.902346 280.612315,20.3507027 280.564554,11.7786954 C280.547838,8.77847404 280.533892,6.11500192 280.52259,3.81889203 C280.518634,3.01524154 280.515291,2.31491161 280.512546,1.7217289 C280.512091,1.6229153 280.511773,1.55394172 280.511525,1.5 C280.257395,1.5 279.846785,1.5 278.976541,1.5 Z"></path>
            </g>
        </g>
    </g>
</svg>