<?xml version="1.0" encoding="UTF-8"?>
<svg width="310px" height="815px" viewBox="0 0 310 815" version="1.1" xmlns="http://www.w3.org/2000/svg" xmlns:xlink="http://www.w3.org/1999/xlink">
    <!-- Generator: Sketch 48.2 (47327) - http://www.bohemiancoding.com/sketch -->
    <title>face</title>
    <desc>Created with Sketch.</desc>
    <defs></defs>
    <g id="Artboard" stroke="none" stroke-width="1" fill="none" fill-rule="evenodd" transform="translate(0.000000, -71.000000)">
        <g id="face" transform="translate(-222.000000, 69.000000)">
            <path d="M409.6875,115 C440.15625,129.813802 454.921875,164.291016 453.984375,218.431641 C452.578125,299.642578 472.962891,342.652344 500.060547,365.996094 C527.158203,389.339844 532.140625,407.047852 529.037109,420.379883 C525.933594,433.711914 508.570312,449.012695 478.553711,461.050781 C478.553711,461.050781 481.410807,467.371419 487.125,480.012695 C492.183594,492.801107 493.889974,501.372721 492.244141,505.727539 C489.775391,512.259766 478.137695,519.582031 477.475586,526.930664 C476.813477,534.279297 486.823242,552.333008 485.838867,559.417969 C484.854492,566.50293 472.65332,570.21582 470.076172,586.902344 C467.499023,603.588867 473.102539,632.985352 453.984375,645.452148 C434.866211,657.918945 401.222656,662.133789 360.080078,667.645508 C318.9375,673.157227 206.21875,675.985352 248.28125,1236.9707 C248.28125,1236.9707 175.882813,1039.79785 31.0859375,645.452148 L0,218.431641 L409.6875,115 Z" id="Path-2" stroke="#000000" stroke-width="3" fill="#FCB189"></path>
            <path d="M142.042969,522.257812 C236.378906,479.671875 291.136719,434.673177 306.316406,387.261719 C321.496094,339.85026 327.473958,302.277344 324.25,274.542969 C404.393229,245.451823 444.536458,200.441406 444.679687,139.511719 C444.894531,48.1171875 228.462891,-20.4746094 142.042969,6.8515625 C84.4296875,25.0690104 84.4296875,196.871094 142.042969,522.257812 Z" id="Path" fill="#000000"></path>
        </g>
    </g>
</svg>